<mxfile host="app.diagrams.net" agent="Mozilla/5.0 (Windows NT 10.0; Win64; x64; rv:141.0) Gecko/20100101 Firefox/141.0" version="28.0.7">
  <diagram name="Page-1" id="NnlHJsT5MXPtI61NSeME">
    <mxGraphModel dx="1490" dy="857" grid="1" gridSize="13" guides="1" tooltips="1" connect="1" arrows="1" fold="1" page="1" pageScale="1" pageWidth="1500" pageHeight="1000" math="0" shadow="0">
      <root>
        <mxCell id="0" />
        <mxCell id="1" parent="0" />
        <mxCell id="9c-1bYM_ctXbSxQ3_JnQ-1" value="Hardware Layer" style="text;html=1;align=center;verticalAlign=middle;whiteSpace=wrap;rounded=0;fillColor=#dae8fc;strokeColor=#6c8ebf;" vertex="1" parent="1">
          <mxGeometry x="832" y="40" width="585" height="30" as="geometry" />
        </mxCell>
        <mxCell id="9c-1bYM_ctXbSxQ3_JnQ-2" value="Common Layer" style="text;html=1;align=center;verticalAlign=middle;whiteSpace=wrap;rounded=0;fillColor=#f8cecc;strokeColor=#b85450;" vertex="1" parent="1">
          <mxGeometry x="533" y="40" width="260" height="30" as="geometry" />
        </mxCell>
        <mxCell id="9c-1bYM_ctXbSxQ3_JnQ-3" value="Application Layer" style="text;html=1;align=center;verticalAlign=middle;whiteSpace=wrap;rounded=0;fillColor=#ffe6cc;strokeColor=#d79b00;" vertex="1" parent="1">
          <mxGeometry x="26" y="40" width="481" height="30" as="geometry" />
        </mxCell>
        <mxCell id="9c-1bYM_ctXbSxQ3_JnQ-79" style="edgeStyle=orthogonalEdgeStyle;rounded=0;orthogonalLoop=1;jettySize=auto;html=1;" edge="1" parent="1" source="9c-1bYM_ctXbSxQ3_JnQ-4">
          <mxGeometry relative="1" as="geometry">
            <mxPoint x="520" y="130" as="targetPoint" />
          </mxGeometry>
        </mxCell>
        <mxCell id="9c-1bYM_ctXbSxQ3_JnQ-4" value="&lt;div&gt;ECUSim&lt;/div&gt;&lt;div&gt;(GUI)&lt;/div&gt;" style="rounded=1;whiteSpace=wrap;html=1;fillColor=#ffe6cc;strokeColor=#d79b00;" vertex="1" parent="1">
          <mxGeometry x="36" y="100" width="120" height="60" as="geometry" />
        </mxCell>
        <mxCell id="9c-1bYM_ctXbSxQ3_JnQ-53" style="edgeStyle=orthogonalEdgeStyle;rounded=0;orthogonalLoop=1;jettySize=auto;html=1;" edge="1" parent="1" source="9c-1bYM_ctXbSxQ3_JnQ-5">
          <mxGeometry relative="1" as="geometry">
            <mxPoint x="519.9999999999998" y="381" as="targetPoint" />
          </mxGeometry>
        </mxCell>
        <mxCell id="9c-1bYM_ctXbSxQ3_JnQ-5" value="&lt;div&gt;WPFHostLib&lt;/div&gt;&lt;div&gt;(ElementHost)&lt;/div&gt;" style="rounded=1;whiteSpace=wrap;html=1;fillColor=#ffe6cc;strokeColor=#d79b00;" vertex="1" parent="1">
          <mxGeometry x="117" y="351" width="120" height="60" as="geometry" />
        </mxCell>
        <mxCell id="9c-1bYM_ctXbSxQ3_JnQ-6" value="CommonHwLib" style="rounded=1;whiteSpace=wrap;html=1;fillColor=#f8cecc;strokeColor=#b85450;" vertex="1" parent="1">
          <mxGeometry x="615" y="100" width="120" height="60" as="geometry" />
        </mxCell>
        <mxCell id="9c-1bYM_ctXbSxQ3_JnQ-59" style="edgeStyle=orthogonalEdgeStyle;rounded=0;orthogonalLoop=1;jettySize=auto;html=1;" edge="1" parent="1" source="9c-1bYM_ctXbSxQ3_JnQ-7">
          <mxGeometry relative="1" as="geometry">
            <mxPoint x="806" y="230" as="targetPoint" />
          </mxGeometry>
        </mxCell>
        <mxCell id="9c-1bYM_ctXbSxQ3_JnQ-7" value="HwSettingsLib" style="rounded=1;whiteSpace=wrap;html=1;fillColor=#f8cecc;strokeColor=#b85450;" vertex="1" parent="1">
          <mxGeometry x="615" y="200" width="120" height="60" as="geometry" />
        </mxCell>
        <mxCell id="9c-1bYM_ctXbSxQ3_JnQ-8" value="UtilityLib" style="rounded=1;whiteSpace=wrap;html=1;fillColor=#f8cecc;strokeColor=#b85450;" vertex="1" parent="1">
          <mxGeometry x="615" y="300" width="120" height="60" as="geometry" />
        </mxCell>
        <mxCell id="9c-1bYM_ctXbSxQ3_JnQ-9" value="LoggerLib" style="rounded=1;whiteSpace=wrap;html=1;fillColor=#f8cecc;strokeColor=#b85450;" vertex="1" parent="1">
          <mxGeometry x="615" y="400" width="120" height="60" as="geometry" />
        </mxCell>
        <mxCell id="9c-1bYM_ctXbSxQ3_JnQ-55" style="edgeStyle=orthogonalEdgeStyle;rounded=0;orthogonalLoop=1;jettySize=auto;html=1;" edge="1" parent="1" source="9c-1bYM_ctXbSxQ3_JnQ-10">
          <mxGeometry relative="1" as="geometry">
            <mxPoint x="519.9999999999998" y="537" as="targetPoint" />
          </mxGeometry>
        </mxCell>
        <mxCell id="9c-1bYM_ctXbSxQ3_JnQ-10" value="WPFComSettingsViewLib" style="rounded=1;whiteSpace=wrap;html=1;fillColor=#ffe6cc;strokeColor=#d79b00;" vertex="1" parent="1">
          <mxGeometry x="286" y="507" width="160" height="60" as="geometry" />
        </mxCell>
        <mxCell id="9c-1bYM_ctXbSxQ3_JnQ-54" style="edgeStyle=orthogonalEdgeStyle;rounded=0;orthogonalLoop=1;jettySize=auto;html=1;exitX=1;exitY=0.5;exitDx=0;exitDy=0;" edge="1" parent="1" source="9c-1bYM_ctXbSxQ3_JnQ-11">
          <mxGeometry relative="1" as="geometry">
            <mxPoint x="519.9999999999998" y="459.7142857142858" as="targetPoint" />
          </mxGeometry>
        </mxCell>
        <mxCell id="9c-1bYM_ctXbSxQ3_JnQ-11" value="WPFLibBase" style="rounded=1;whiteSpace=wrap;html=1;fillColor=#ffe6cc;strokeColor=#d79b00;" vertex="1" parent="1">
          <mxGeometry x="196" y="429" width="120" height="60" as="geometry" />
        </mxCell>
        <mxCell id="9c-1bYM_ctXbSxQ3_JnQ-12" value="HwWrapperInterface" style="rounded=1;whiteSpace=wrap;html=1;fillColor=#dae8fc;strokeColor=#6c8ebf;" vertex="1" parent="1">
          <mxGeometry x="855" y="100" width="120" height="60" as="geometry" />
        </mxCell>
        <mxCell id="9c-1bYM_ctXbSxQ3_JnQ-43" style="edgeStyle=orthogonalEdgeStyle;rounded=0;orthogonalLoop=1;jettySize=auto;html=1;exitX=0.5;exitY=0;exitDx=0;exitDy=0;entryX=0.5;entryY=1;entryDx=0;entryDy=0;" edge="1" parent="1" source="9c-1bYM_ctXbSxQ3_JnQ-13" target="9c-1bYM_ctXbSxQ3_JnQ-12">
          <mxGeometry relative="1" as="geometry" />
        </mxCell>
        <mxCell id="9c-1bYM_ctXbSxQ3_JnQ-13" value="HwWrapperFactory" style="rounded=1;whiteSpace=wrap;html=1;fillColor=#dae8fc;strokeColor=#6c8ebf;" vertex="1" parent="1">
          <mxGeometry x="855" y="339" width="120" height="60" as="geometry" />
        </mxCell>
        <mxCell id="9c-1bYM_ctXbSxQ3_JnQ-69" style="edgeStyle=orthogonalEdgeStyle;rounded=0;orthogonalLoop=1;jettySize=auto;html=1;exitX=0.5;exitY=0;exitDx=0;exitDy=0;" edge="1" parent="1" source="9c-1bYM_ctXbSxQ3_JnQ-14">
          <mxGeometry relative="1" as="geometry">
            <mxPoint x="1086.8571428571431" y="130" as="targetPoint" />
          </mxGeometry>
        </mxCell>
        <mxCell id="9c-1bYM_ctXbSxQ3_JnQ-14" value="&lt;div&gt;VectorXLWrapper&lt;/div&gt;&lt;div&gt;(vxlapi_NET)&lt;/div&gt;" style="rounded=1;whiteSpace=wrap;html=1;fillColor=#dae8fc;strokeColor=#6c8ebf;" vertex="1" parent="1">
          <mxGeometry x="1027" y="208" width="120" height="60" as="geometry" />
        </mxCell>
        <mxCell id="9c-1bYM_ctXbSxQ3_JnQ-56" style="edgeStyle=orthogonalEdgeStyle;rounded=0;orthogonalLoop=1;jettySize=auto;html=1;" edge="1" parent="1" source="9c-1bYM_ctXbSxQ3_JnQ-16">
          <mxGeometry relative="1" as="geometry">
            <mxPoint x="519.9999999999998" y="615" as="targetPoint" />
          </mxGeometry>
        </mxCell>
        <mxCell id="9c-1bYM_ctXbSxQ3_JnQ-16" value="WPFTraceViewLib" style="rounded=1;whiteSpace=wrap;html=1;fillColor=#ffe6cc;strokeColor=#d79b00;" vertex="1" parent="1">
          <mxGeometry x="286" y="585" width="156" height="60" as="geometry" />
        </mxCell>
        <mxCell id="9c-1bYM_ctXbSxQ3_JnQ-47" style="edgeStyle=orthogonalEdgeStyle;rounded=0;orthogonalLoop=1;jettySize=auto;html=1;exitX=1;exitY=0.5;exitDx=0;exitDy=0;" edge="1" parent="1" source="9c-1bYM_ctXbSxQ3_JnQ-17">
          <mxGeometry relative="1" as="geometry">
            <mxPoint x="519.9999999999998" y="219.71428571428578" as="targetPoint" />
          </mxGeometry>
        </mxCell>
        <mxCell id="9c-1bYM_ctXbSxQ3_JnQ-17" value="MessageDesignerLib" style="rounded=1;whiteSpace=wrap;html=1;fillColor=#ffe6cc;strokeColor=#d79b00;" vertex="1" parent="1">
          <mxGeometry x="117" y="190" width="120" height="60" as="geometry" />
        </mxCell>
        <mxCell id="9c-1bYM_ctXbSxQ3_JnQ-52" style="edgeStyle=orthogonalEdgeStyle;rounded=0;orthogonalLoop=1;jettySize=auto;html=1;exitX=1;exitY=0.5;exitDx=0;exitDy=0;" edge="1" parent="1" source="9c-1bYM_ctXbSxQ3_JnQ-18">
          <mxGeometry relative="1" as="geometry">
            <mxPoint x="519.9999999999998" y="306.8571428571429" as="targetPoint" />
          </mxGeometry>
        </mxCell>
        <mxCell id="9c-1bYM_ctXbSxQ3_JnQ-18" value="MessageProcessorLib" style="rounded=1;whiteSpace=wrap;html=1;fillColor=#ffe6cc;strokeColor=#d79b00;" vertex="1" parent="1">
          <mxGeometry x="116" y="277" width="140" height="60" as="geometry" />
        </mxCell>
        <mxCell id="9c-1bYM_ctXbSxQ3_JnQ-22" value="" style="endArrow=none;html=1;rounded=0;" edge="1" parent="1">
          <mxGeometry width="50" height="50" relative="1" as="geometry">
            <mxPoint x="71" y="403" as="sourcePoint" />
            <mxPoint x="71" y="160" as="targetPoint" />
          </mxGeometry>
        </mxCell>
        <mxCell id="9c-1bYM_ctXbSxQ3_JnQ-23" value="" style="endArrow=classic;html=1;rounded=0;entryX=0;entryY=0.5;entryDx=0;entryDy=0;" edge="1" parent="1">
          <mxGeometry width="50" height="50" relative="1" as="geometry">
            <mxPoint x="73" y="221" as="sourcePoint" />
            <mxPoint x="112" y="220" as="targetPoint" />
          </mxGeometry>
        </mxCell>
        <mxCell id="9c-1bYM_ctXbSxQ3_JnQ-24" value="" style="endArrow=classic;html=1;rounded=0;entryX=0;entryY=0.5;entryDx=0;entryDy=0;" edge="1" parent="1">
          <mxGeometry width="50" height="50" relative="1" as="geometry">
            <mxPoint x="73" y="307" as="sourcePoint" />
            <mxPoint x="112" y="307" as="targetPoint" />
          </mxGeometry>
        </mxCell>
        <mxCell id="9c-1bYM_ctXbSxQ3_JnQ-25" value="" style="endArrow=classic;html=1;rounded=0;entryX=0;entryY=0.5;entryDx=0;entryDy=0;" edge="1" parent="1">
          <mxGeometry width="50" height="50" relative="1" as="geometry">
            <mxPoint x="73" y="381" as="sourcePoint" />
            <mxPoint x="112" y="381" as="targetPoint" />
          </mxGeometry>
        </mxCell>
        <mxCell id="9c-1bYM_ctXbSxQ3_JnQ-27" value="" style="endArrow=classic;html=1;rounded=0;entryX=0;entryY=0.5;entryDx=0;entryDy=0;" edge="1" parent="1">
          <mxGeometry width="50" height="50" relative="1" as="geometry">
            <mxPoint x="169" y="459" as="sourcePoint" />
            <mxPoint x="194.99999999999977" y="459" as="targetPoint" />
          </mxGeometry>
        </mxCell>
        <mxCell id="9c-1bYM_ctXbSxQ3_JnQ-31" value="" style="endArrow=classic;html=1;rounded=0;exitX=0.5;exitY=1;exitDx=0;exitDy=0;entryX=0;entryY=0.5;entryDx=0;entryDy=0;" edge="1" parent="1" source="9c-1bYM_ctXbSxQ3_JnQ-11" target="9c-1bYM_ctXbSxQ3_JnQ-10">
          <mxGeometry width="50" height="50" relative="1" as="geometry">
            <mxPoint x="442" y="401" as="sourcePoint" />
            <mxPoint x="256" y="637" as="targetPoint" />
            <Array as="points">
              <mxPoint x="256" y="537" />
            </Array>
          </mxGeometry>
        </mxCell>
        <mxCell id="9c-1bYM_ctXbSxQ3_JnQ-32" value="" style="endArrow=classic;html=1;rounded=0;entryX=0;entryY=0.5;entryDx=0;entryDy=0;" edge="1" parent="1">
          <mxGeometry width="50" height="50" relative="1" as="geometry">
            <mxPoint x="256" y="533" as="sourcePoint" />
            <mxPoint x="282" y="615" as="targetPoint" />
            <Array as="points">
              <mxPoint x="256" y="615" />
            </Array>
          </mxGeometry>
        </mxCell>
        <mxCell id="9c-1bYM_ctXbSxQ3_JnQ-33" value="" style="endArrow=none;html=1;rounded=0;" edge="1" parent="1">
          <mxGeometry width="50" height="50" relative="1" as="geometry">
            <mxPoint x="520" y="650" as="sourcePoint" />
            <mxPoint x="520" y="65" as="targetPoint" />
          </mxGeometry>
        </mxCell>
        <mxCell id="9c-1bYM_ctXbSxQ3_JnQ-35" value="" style="endArrow=classic;startArrow=classic;html=1;rounded=0;entryX=0;entryY=0.5;entryDx=0;entryDy=0;" edge="1" parent="1" target="9c-1bYM_ctXbSxQ3_JnQ-6">
          <mxGeometry width="50" height="50" relative="1" as="geometry">
            <mxPoint x="520" y="130" as="sourcePoint" />
            <mxPoint x="466" y="338" as="targetPoint" />
          </mxGeometry>
        </mxCell>
        <mxCell id="9c-1bYM_ctXbSxQ3_JnQ-36" value="" style="endArrow=classic;html=1;rounded=0;" edge="1" parent="1">
          <mxGeometry width="50" height="50" relative="1" as="geometry">
            <mxPoint x="611" y="234" as="sourcePoint" />
            <mxPoint x="520" y="234" as="targetPoint" />
          </mxGeometry>
        </mxCell>
        <mxCell id="9c-1bYM_ctXbSxQ3_JnQ-37" value="" style="endArrow=classic;html=1;rounded=0;" edge="1" parent="1">
          <mxGeometry width="50" height="50" relative="1" as="geometry">
            <mxPoint x="612" y="326" as="sourcePoint" />
            <mxPoint x="521" y="326" as="targetPoint" />
          </mxGeometry>
        </mxCell>
        <mxCell id="9c-1bYM_ctXbSxQ3_JnQ-38" value="" style="endArrow=classic;html=1;rounded=0;" edge="1" parent="1">
          <mxGeometry width="50" height="50" relative="1" as="geometry">
            <mxPoint x="611" y="430" as="sourcePoint" />
            <mxPoint x="520" y="430" as="targetPoint" />
          </mxGeometry>
        </mxCell>
        <mxCell id="9c-1bYM_ctXbSxQ3_JnQ-50" value="" style="endArrow=none;html=1;rounded=0;entryX=0.415;entryY=1.002;entryDx=0;entryDy=0;entryPerimeter=0;" edge="1" parent="1" target="9c-1bYM_ctXbSxQ3_JnQ-5">
          <mxGeometry width="50" height="50" relative="1" as="geometry">
            <mxPoint x="167" y="520" as="sourcePoint" />
            <mxPoint x="583" y="338" as="targetPoint" />
          </mxGeometry>
        </mxCell>
        <mxCell id="9c-1bYM_ctXbSxQ3_JnQ-51" style="edgeStyle=orthogonalEdgeStyle;rounded=0;orthogonalLoop=1;jettySize=auto;html=1;exitX=0.5;exitY=0;exitDx=0;exitDy=0;entryX=0.606;entryY=0.971;entryDx=0;entryDy=0;entryPerimeter=0;" edge="1" parent="1" source="9c-1bYM_ctXbSxQ3_JnQ-18" target="9c-1bYM_ctXbSxQ3_JnQ-17">
          <mxGeometry relative="1" as="geometry" />
        </mxCell>
        <mxCell id="9c-1bYM_ctXbSxQ3_JnQ-57" value="" style="endArrow=none;html=1;rounded=0;" edge="1" parent="1">
          <mxGeometry width="50" height="50" relative="1" as="geometry">
            <mxPoint x="806" y="663" as="sourcePoint" />
            <mxPoint x="806" y="52" as="targetPoint" />
          </mxGeometry>
        </mxCell>
        <mxCell id="9c-1bYM_ctXbSxQ3_JnQ-58" value="" style="endArrow=classic;startArrow=classic;html=1;rounded=0;" edge="1" parent="1">
          <mxGeometry width="50" height="50" relative="1" as="geometry">
            <mxPoint x="741" y="130" as="sourcePoint" />
            <mxPoint x="806" y="130" as="targetPoint" />
          </mxGeometry>
        </mxCell>
        <mxCell id="9c-1bYM_ctXbSxQ3_JnQ-89" style="edgeStyle=orthogonalEdgeStyle;rounded=0;orthogonalLoop=1;jettySize=auto;html=1;exitX=0.5;exitY=0;exitDx=0;exitDy=0;" edge="1" parent="1" source="9c-1bYM_ctXbSxQ3_JnQ-66">
          <mxGeometry relative="1" as="geometry">
            <mxPoint x="1254.571428571429" y="130" as="targetPoint" />
          </mxGeometry>
        </mxCell>
        <mxCell id="9c-1bYM_ctXbSxQ3_JnQ-66" value="........" style="rounded=1;whiteSpace=wrap;html=1;fillColor=#dae8fc;strokeColor=#6c8ebf;" vertex="1" parent="1">
          <mxGeometry x="1183" y="208" width="143" height="60" as="geometry" />
        </mxCell>
        <mxCell id="9c-1bYM_ctXbSxQ3_JnQ-68" value="" style="endArrow=none;html=1;rounded=0;exitX=1;exitY=0.5;exitDx=0;exitDy=0;" edge="1" parent="1" source="9c-1bYM_ctXbSxQ3_JnQ-12">
          <mxGeometry width="50" height="50" relative="1" as="geometry">
            <mxPoint x="1222" y="388" as="sourcePoint" />
            <mxPoint x="1378" y="130" as="targetPoint" />
          </mxGeometry>
        </mxCell>
        <mxCell id="9c-1bYM_ctXbSxQ3_JnQ-71" value="" style="endArrow=none;html=1;rounded=0;exitX=1;exitY=0.5;exitDx=0;exitDy=0;" edge="1" parent="1" source="9c-1bYM_ctXbSxQ3_JnQ-13">
          <mxGeometry width="50" height="50" relative="1" as="geometry">
            <mxPoint x="1222" y="388" as="sourcePoint" />
            <mxPoint x="1404" y="369" as="targetPoint" />
          </mxGeometry>
        </mxCell>
        <mxCell id="9c-1bYM_ctXbSxQ3_JnQ-75" value="" style="endArrow=classic;html=1;rounded=0;entryX=0.5;entryY=1;entryDx=0;entryDy=0;" edge="1" parent="1">
          <mxGeometry width="50" height="50" relative="1" as="geometry">
            <mxPoint x="1087" y="366" as="sourcePoint" />
            <mxPoint x="1087" y="270" as="targetPoint" />
          </mxGeometry>
        </mxCell>
        <mxCell id="9c-1bYM_ctXbSxQ3_JnQ-76" value="" style="endArrow=classic;html=1;rounded=0;entryX=0.5;entryY=1;entryDx=0;entryDy=0;" edge="1" parent="1">
          <mxGeometry width="50" height="50" relative="1" as="geometry">
            <mxPoint x="1256" y="367" as="sourcePoint" />
            <mxPoint x="1256" y="271" as="targetPoint" />
          </mxGeometry>
        </mxCell>
        <mxCell id="9c-1bYM_ctXbSxQ3_JnQ-84" value="" style="endArrow=none;dashed=1;html=1;dashPattern=1 3;strokeWidth=2;rounded=0;entryX=0;entryY=0.5;entryDx=0;entryDy=0;exitX=0;exitY=0;exitDx=0;exitDy=0;" edge="1" parent="1" source="9c-1bYM_ctXbSxQ3_JnQ-8" target="9c-1bYM_ctXbSxQ3_JnQ-6">
          <mxGeometry width="50" height="50" relative="1" as="geometry">
            <mxPoint x="624" y="388" as="sourcePoint" />
            <mxPoint x="674" y="338" as="targetPoint" />
            <Array as="points">
              <mxPoint x="559" y="260" />
            </Array>
          </mxGeometry>
        </mxCell>
        <mxCell id="9c-1bYM_ctXbSxQ3_JnQ-86" value="" style="endArrow=none;dashed=1;html=1;dashPattern=1 3;strokeWidth=2;rounded=0;entryX=0.5;entryY=1;entryDx=0;entryDy=0;exitX=0.5;exitY=0;exitDx=0;exitDy=0;" edge="1" parent="1" source="9c-1bYM_ctXbSxQ3_JnQ-7" target="9c-1bYM_ctXbSxQ3_JnQ-6">
          <mxGeometry width="50" height="50" relative="1" as="geometry">
            <mxPoint x="624" y="388" as="sourcePoint" />
            <mxPoint x="674" y="338" as="targetPoint" />
          </mxGeometry>
        </mxCell>
        <mxCell id="9c-1bYM_ctXbSxQ3_JnQ-87" value="" style="endArrow=classic;html=1;rounded=0;entryX=0;entryY=0.5;entryDx=0;entryDy=0;" edge="1" parent="1" target="9c-1bYM_ctXbSxQ3_JnQ-12">
          <mxGeometry width="50" height="50" relative="1" as="geometry">
            <mxPoint x="806" y="130" as="sourcePoint" />
            <mxPoint x="674" y="338" as="targetPoint" />
          </mxGeometry>
        </mxCell>
        <mxCell id="9c-1bYM_ctXbSxQ3_JnQ-88" value="" style="endArrow=classic;html=1;rounded=0;entryX=0;entryY=0.5;entryDx=0;entryDy=0;" edge="1" parent="1" target="9c-1bYM_ctXbSxQ3_JnQ-13">
          <mxGeometry width="50" height="50" relative="1" as="geometry">
            <mxPoint x="806" y="369" as="sourcePoint" />
            <mxPoint x="674" y="338" as="targetPoint" />
          </mxGeometry>
        </mxCell>
      </root>
    </mxGraphModel>
  </diagram>
</mxfile>
